<svg width="32" height="32" viewBox="0 0 32 32" fill="none" xmlns="http://www.w3.org/2000/svg">
<path d="M26.03 27.24C28.78 27.22 31 24.99 31 22.23C31 19.72 29.15 17.65 26.75 17.28C25.95 13.55 22.63 10.75 18.66 10.75C15.2 10.75 12.24 12.88 11 15.89C10.13 15.4 9.12 15.12 8.06 15.12C4.71 15.13 2 17.84 2 21.19C2 24.54 4.71 27.25 8.06 27.25" fill="white"/>
<path d="M26.03 27.24C28.78 27.22 31 24.99 31 22.23C31 19.72 29.15 17.65 26.75 17.28C25.95 13.55 22.63 10.75 18.66 10.75C15.2 10.75 12.24 12.88 11 15.89C10.13 15.4 9.12 15.12 8.06 15.12C4.71 15.13 2 17.84 2 21.19C2 24.54 4.71 27.25 8.06 27.25" stroke="#666666" stroke-width="1.5" stroke-miterlimit="10" stroke-linecap="round"/>
<path d="M17.94 21.66L17.25 20.3L16.56 21.66C16.52 21.75 16.5 21.85 16.5 21.95C16.5 22.05 16.52 22.15 16.56 22.24C16.6 22.33 16.65 22.41 16.72 22.48C16.79 22.55 16.87 22.6 16.96 22.64C17.05 22.68 17.15 22.7 17.25 22.7C17.35 22.7 17.45 22.68 17.54 22.64C17.63 22.6 17.71 22.55 17.78 22.48C17.85 22.41 17.9 22.33 17.94 22.24C17.98 22.15 18 22.05 18 21.95C18 21.84 17.98 21.74 17.94 21.66Z" fill="#52A0E6"/>
<path d="M19.29 28.51L17.25 24.46L15.21 28.51C15.21 28.51 15 28.9 15 29.46C15 30.7 16.01 31.71 17.25 31.71C18.49 31.71 19.5 30.7 19.5 29.46C19.5 28.9 19.29 28.51 19.29 28.51Z" fill="#52A0E6"/>
<path d="M23.18 21.64L22.5 20.29L21.82 21.64C21.82 21.64 21.75 21.77 21.75 21.96C21.75 22.37 22.09 22.71 22.5 22.71C22.91 22.71 23.25 22.37 23.25 21.96C23.25 21.77 23.18 21.64 23.18 21.64Z" fill="#52A0E6"/>
<path d="M23.18 30.64L22.5 29.29L21.82 30.64C21.82 30.64 21.75 30.77 21.75 30.96C21.75 31.37 22.09 31.71 22.5 31.71C22.91 31.71 23.25 31.37 23.25 30.96C23.25 30.77 23.18 30.64 23.18 30.64Z" fill="#52A0E6"/>
<path d="M23.18 26.14L22.5 24.79L21.82 26.14C21.82 26.14 21.75 26.27 21.75 26.46C21.75 26.87 22.09 27.21 22.5 27.21C22.91 27.21 23.25 26.87 23.25 26.46C23.25 26.27 23.18 26.14 23.18 26.14Z" fill="#52A0E6"/>
<path d="M12.68 21.64L12 20.29L11.32 21.64C11.32 21.64 11.25 21.77 11.25 21.96C11.25 22.37 11.59 22.71 12 22.71C12.41 22.71 12.75 22.37 12.75 21.96C12.75 21.77 12.68 21.64 12.68 21.64Z" fill="#52A0E6"/>
<path d="M12.68 30.64L12 29.29L11.32 30.64C11.32 30.64 11.25 30.77 11.25 30.96C11.25 31.37 11.59 31.71 12 31.71C12.41 31.71 12.75 31.37 12.75 30.96C12.75 30.77 12.68 30.64 12.68 30.64Z" fill="#52A0E6"/>
<path d="M12.68 26.14L12 24.79L11.32 26.14C11.32 26.14 11.25 26.27 11.25 26.46C11.25 26.87 11.59 27.21 12 27.21C12.41 27.21 12.75 26.87 12.75 26.46C12.75 26.27 12.68 26.14 12.68 26.14Z" fill="#52A0E6"/>
</svg>
